Coordinates
version=1
nRows=8
nColumns=33
inDegrees=yes

Units are S.I. units (second, meters, Newtons, ...)
Angles are in degrees.

endheader
time	ground_thorax_rot_x	ground_thorax_rot_y	ground_thorax_rot_z	ground_thorax_tx	ground_thorax_ty	ground_thorax_tz	clav_prot_r	clav_elev_r	scapula_abduction_r	scapula_elevation_r	scapula_upward_rot_r	scapula_winging_r	shoulder_elv_r	plane_of_elev_r	axial_rot_r	elbow_flexion_r	pro_sup_r	wrist_flex_r	wrist_dev_r	clav_prot_l	clav_elev_l	scapula_abduction_l	scapula_elevation_l	scapula_upward_rot_l	scapula_winging_l	shoulder_elv_l	plane_of_elev_l	axial_rot_l	elbow_flexion_l	pro_sup_l	wrist_flex_l	wrist_dev_l
      4.32000000	     -4.72407512	    -41.39831876	     83.02660243	    -28.50441131	    781.01064826	    -35.43571661	     27.39535090	    -45.00000000	     43.86453797	    -45.00000000	    -45.00000000	  -3724.08561864	  -2979.37232365	    142.27565402	   -179.99999979	   1788.26483461	    425.04881864	     20.68912273	     15.19778160	     -6.84054244	     36.45654664	    -29.10986955	    -45.00000000	    -45.00000000	  -1338.79908484	  -3697.47527754	    141.40542830	    179.99999979	    354.98748346	   -322.70412192	     14.22668937	    -18.64973373
      4.33000000	     -5.28709147	    -41.41194097	     82.23320400	    -32.35710271	    782.31484782	    -35.65495096	     27.49584665	    -45.00000000	     44.06560887	    -45.00000000	    -45.00000000	  -3724.17239584	  -2979.29086840	    142.21719295	   -179.99999979	   1788.21071621	    424.79810613	     20.76617519	     15.30502426	     -6.99565070	     36.65442036	    -29.20690158	    -45.00000000	    -45.00000000	  -1338.72599990	  -3697.27270937	    141.43403797	    179.99999979	    354.94781080	   -322.42788920	     14.17794877	    -18.71549501
      4.34000000	     -6.03923939	    -41.37969399	     81.19262458	    -36.20054251	    783.73084562	    -35.90068005	     27.44990219	    -45.00000000	     44.03023462	    -45.00000000	    -45.00000000	  -3724.11845819	  -2979.08599579	    142.22629327	   -179.99999979	   1788.19154986	    424.52927642	     20.87940454	     15.41133520	     -7.04705835	     36.79111842	    -29.44941506	    -45.00000000	    -44.63310862	  -1338.59092631	  -3697.18592234	    141.49701175	    179.99999979	    354.88320385	   -322.18079816	     14.21784035	    -18.81862549
      4.35000000	     -8.24265321	    -41.08525987	     78.32954702	    -40.02815157	    785.25934247	    -36.17350537	     27.37562217	    -45.00000000	     43.33559731	    -45.00000000	    -45.00000000	  -3723.83609861	  -2979.12292377	    141.94957744	   -179.99999979	   1788.13941664	    424.45292083	     21.32511298	     15.80691512	     -6.41074225	     36.23910849	    -29.78434355	    -45.00000000	    -44.29631644	  -1339.99420115	  -3697.11557218	    142.48559346	    179.99999979	    355.28937314	   -321.97840688	     14.30011805	    -19.18017683
      4.36000000	     -8.16486794	    -41.19787106	     78.25103405	    -43.82781180	    786.89283795	    -36.47169177	     27.53469868	    -45.00000000	     43.69711195	    -45.00000000	    -45.00000000	  -3723.88513818	  -2978.85375847	    142.06582461	   -179.99999979	   1788.06735737	    424.14396390	     21.30404547	     15.77669115	     -6.47029648	     36.09645391	    -29.97859217	    -45.00000000	    -44.34339408	  -1339.26811487	  -3697.01367957	    142.19231454	    179.99999979	    355.10988600	   -321.72097145	     14.53482355	    -19.31714721
      4.37000000	     -8.28818915	    -41.30622715	     78.02429258	    -47.58129885	    788.62643219	    -36.79281614	     27.60302937	    -45.00000000	     44.25046274	    -45.00000000	    -44.55944896	  -3724.11835716	  -2978.76451852	    142.25675960	   -179.99999979	   1788.13659061	    423.83650482	     21.21301278	     15.67076757	     -6.62840012	     36.46895182	    -30.04882176	    -45.00000000	    -44.74151165	  -1338.54803794	  -3696.87253693	    141.67618192	    179.99999979	    355.05377974	   -321.49459136	     14.45215440	    -19.33413146
      4.38000000	     -9.13997968	    -41.25445521	     76.74277994	    -51.29003147	    790.46089835	    -37.13434328	     27.51107223	    -45.00000000	     44.34093737	    -45.00000000	    -44.13973766	  -3724.01489218	  -2978.53154479	    142.28076514	   -179.99999979	   1788.10235742	    423.60947452	     21.40087822	     15.83213524	     -6.70266017	     36.73313911	    -30.17029571	    -45.00000000	    -44.30131652	  -1338.53889754	  -3696.75534145	    141.71965452	    179.99999979	    355.00134371	   -321.30285839	     14.41934818	    -19.42535747
      4.39000000	    -10.20501477	    -41.15149124	     75.19009168	    -54.94021574	    792.39095160	    -37.49204876	     27.38536527	    -45.00000000	     44.41188708	    -45.00000000	    -43.43816965	  -3723.97786521	  -2978.36349511	    142.33471504	   -179.99999979	   1788.11273945	    423.38020202	     21.53938005	     15.92627001	     -6.54710473	     36.59400705	    -30.44366011	    -45.00000000	    -43.75283417	  -1338.62931314	  -3696.74496290	    141.97821860	    179.99999979	    355.06893581	   -321.11995756	     14.52538387	    -19.65055225
